<svg id="Layer_1" data-name="Layer 1" xmlns="http://www.w3.org/2000/svg" viewBox="0 0 230.52 248.32"><defs><style>.cls-1{fill:none;stroke:#000;stroke-miterlimit:10;}.cls-2{font-size:8px;font-family:MyriadPro-Regular, Myriad Pro;}.cls-3{letter-spacing:-0.08em;}.cls-4{letter-spacing:0.04em;}.cls-5{letter-spacing:-0.08em;}.cls-6{letter-spacing:-0.02em;}.cls-7{letter-spacing:-0.04em;}.cls-8{letter-spacing:0em;}</style></defs><title>attacks</title><path class="cls-1" d="M144.32,126.74h212.3s-.34,2.56,5.23,5.24V369.3s-5.15,1.1-5.32,4.76H144.32a7.13,7.13,0,0,0-5.92-5.27V131.6A7.5,7.5,0,0,0,144.32,126.74Z" transform="translate(-134.87 -126.24)"/><path class="cls-1" d="M138.4,140s3.49-9.87,13-13" transform="translate(-134.87 -126.24)"/><path class="cls-1" d="M361.85,140s-3.49-9.87-13-13" transform="translate(-134.87 -126.24)"/><path class="cls-1" d="M151.34,374.06s-17.11-7.23-15.91-25.44c0,0,3-1.11,3-5.28" transform="translate(-134.87 -126.24)"/><path class="cls-1" d="M348.92,374.07s17.1-7.24,15.91-25.45c0,0-3-1.11-3-5.28" transform="translate(-134.87 -126.24)"/><path class="cls-1" d="M140.6,135.77V344.19s.39,11.26-2.73,17.06" transform="translate(-134.87 -126.24)"/><path class="cls-1" d="M359.8,135.77V344.19s-.38,11.26,2.74,17.06" transform="translate(-134.87 -126.24)"/><text class="cls-2" transform="translate(71.73 243.94)"><tspan class="cls-3">A</tspan><tspan class="cls-4" x="4.28" y="0">T</tspan><tspan class="cls-5" x="8.56" y="0">T</tspan><tspan class="cls-6" x="11.94" y="0">A</tspan><tspan x="16.71" y="0">CKS &amp; SPEL</tspan><tspan class="cls-7" x="53.77" y="0">L</tspan><tspan class="cls-8" x="57.24" y="0">C</tspan><tspan x="61.91" y="0">ASTING</tspan></text></svg>