<svg id="Layer_1" data-name="Layer 1" xmlns="http://www.w3.org/2000/svg" viewBox="0 0 211.16 55.66"><defs><style>.cls-1{fill:none;stroke:#000;stroke-miterlimit:10;}.cls-2{font-size:8px;font-family:MyriadPro-Regular, Myriad Pro;}.cls-3{letter-spacing:0.01em;}.cls-4{letter-spacing:-0.02em;}.cls-5{letter-spacing:0.03em;}.cls-6{letter-spacing:0em;}</style></defs><title>charactername</title><path class="cls-1" d="M325.47,219.32H140.68c-13.91-.51-16.53,4.21-16.53,4.21-3.45-19.66-9.13-23.87-9.13-23.87,7.34-9.13,9.26-23.49,9.26-23.49,2.93,4,16.4,3.89,16.4,3.89H310.6" transform="translate(-114.31 -174.87)"/><path class="cls-1" d="M133,179.54a12.14,12.14,0,0,0-8.76,6.61l4.14-2.21c-9.87,9.1-8.17,15.91-8.17,15.91s-1.36,6.72,7.15,14.81l-3.06-.85a11.52,11.52,0,0,0,8.7,5.84" transform="translate(-114.31 -174.87)"/><text class="cls-2" transform="translate(132.55 52.66) scale(1.19 1)">CHA<tspan class="cls-3" x="14.75" y="0">R</tspan><tspan class="cls-4" x="19.1" y="0">A</tspan><tspan class="cls-5" x="23.87" y="0">C</tspan><tspan x="28.74" y="0">TER N</tspan><tspan class="cls-6" x="47.91" y="0">A</tspan><tspan x="52.78" y="0">ME</tspan></text></svg>