<svg id="Layer_1" data-name="Layer 1" xmlns="http://www.w3.org/2000/svg" viewBox="0 0 485.43 96.27"><defs><style>.cls-1,.cls-15{fill:none;stroke-miterlimit:10;}.cls-1{stroke:#000;}.cls-2{font-size:8px;font-family:MyriadPro-Regular, Myriad Pro;}.cls-3{letter-spacing:0.01em;}.cls-4{letter-spacing:0.01em;}.cls-5{letter-spacing:-0.02em;}.cls-6{letter-spacing:-0.02em;}.cls-7{letter-spacing:0em;}.cls-8{letter-spacing:-0.08em;}.cls-9{letter-spacing:-0.01em;}.cls-10{letter-spacing:0em;}.cls-11{letter-spacing:-0.01em;}.cls-12{letter-spacing:-0.08em;}.cls-13{letter-spacing:-0.01em;}.cls-14{letter-spacing:0.03em;}.cls-15{stroke:#dbdbda;}</style></defs><title>characterinfo</title><path class="cls-1" d="M24.19,205.34s-4.34,34-17.36,46c0,0,11.87,10.59,17.36,45.83,0,0,2.3-9.19,36.51-8.17H440.36s26.68-1.66,33.07,8.17c0,0,3.83-31.28,17.36-45.9,0,0-12.64-10.14-17.24-45.89,0,0-6.64,9.32-28.34,8.3H54.7S28.28,214.53,24.19,205.34Z" transform="translate(-6.09 -203.38)"/><path class="cls-1" d="M53.9,288.89c-13.7,0-21.45,7.56-21.45,7.56-4.51-29-17.19-45.22-17.19-45.22,15.48-20.95,17.1-45.89,17.1-45.89s3.92,8.31,21.54,8.31" transform="translate(-6.09 -203.38)"/><path class="cls-1" d="M443.44,288.89c13.7,0,21.45,7.56,21.45,7.56,4.51-29,17.19-45.22,17.19-45.22C466.6,230.28,465,205.34,465,205.34s-3.92,8.31-21.54,8.31" transform="translate(-6.09 -203.38)"/><path class="cls-1" d="M477.64,244.52V237s-9-11.68-6-29.75" transform="translate(-6.09 -203.38)"/><path class="cls-1" d="M477.64,258.24v7.31s-7.57,9.05-6.6,29" transform="translate(-6.09 -203.38)"/><path class="cls-1" d="M20,243.93v-7s9-11.12,6-29.2" transform="translate(-6.09 -203.38)"/><path class="cls-1" d="M20,258.8v6.75s7.58,8.81,6.61,28.8" transform="translate(-6.09 -203.38)"/><text class="cls-2" transform="translate(32.13 45.37)">CLASS &amp; L<tspan class="cls-3" x="33.21" y="0">E</tspan><tspan x="37.21" y="0">VEL</tspan></text><text class="cls-2" transform="translate(29.75 78.88)"><tspan class="cls-4">R</tspan><tspan class="cls-5" x="4.34" y="0">A</tspan><tspan x="9.12" y="0">CE</tspan></text><text class="cls-2" transform="translate(139.7 45.37)">B<tspan class="cls-5" x="4.34" y="0">A</tspan><tspan x="9.11" y="0">C</tspan><tspan class="cls-6" x="13.75" y="0">K</tspan><tspan x="17.95" y="0">G</tspan><tspan class="cls-7" x="23.12" y="0">R</tspan><tspan x="27.45" y="0">OUND</tspan></text><text class="cls-2" transform="translate(138.82 78.88)">ALIGNMENT</text><text class="cls-2" transform="translate(259.37 45.37)">PL<tspan class="cls-8" x="8.03" y="0">A</tspan><tspan class="cls-9" x="12.3" y="0">Y</tspan><tspan x="16.57" y="0">ER N</tspan><tspan class="cls-10" x="31.77" y="0">A</tspan><tspan x="36.63" y="0">ME</tspan></text><text class="cls-2" transform="translate(262.04 78.88)">EXPERIENCE POIN<tspan class="cls-11" x="59.33" y="0">T</tspan><tspan x="63.25" y="0">S</tspan></text><text class="cls-2" transform="translate(391.68 45.37)"><tspan class="cls-12">F</tspan><tspan class="cls-13" x="3.27" y="0">A</tspan><tspan class="cls-14" x="8.05" y="0">C</tspan><tspan x="12.91" y="0">TION</tspan></text><text class="cls-2" transform="translate(393.45 78.88)">DCI NUMBER</text><line class="cls-15" x1="456.68" y1="70.52" x2="28.49" y2="70.52"/><line class="cls-15" x1="456.68" y1="37.96" x2="28.49" y2="37.96"/></svg>