<svg xmlns="http://www.w3.org/2000/svg" viewBox="0 0 275.74 171.55"><defs><style>.cls-1,.cls-2,.cls-3{fill:none;stroke:#000;stroke-miterlimit:10;}.cls-1{stroke-width:4px;}.cls-3{stroke-width:2px;}.cls-4,.cls-8{font-size:22px;font-family:MyriadPro-Regular, Myriad Pro;}.cls-4,.cls-9{letter-spacing:0.02em;}.cls-5{letter-spacing:-0.06em;}.cls-6{letter-spacing:-0.03em;}.cls-7{letter-spacing:0em;}.cls-8{letter-spacing:-0.06em;}.cls-10{letter-spacing:-0.02em;}</style></defs><title>DeathSave</title><g id="Layer_1" data-name="Layer 1"><path class="cls-1" d="M367.6,334.4H127.91c-8.85-8.85-6.62-6.69-15.89-15.95V182.62l15.77-15.77H367.85c8.25,8.25,7.22,7.2,15.92,15.89V318.23Z" transform="translate(-110.02 -164.85)"/><rect class="cls-2" x="2" y="2" width="271.74" height="167.55" rx="45.23"/><line class="cls-2" x1="263.77" y1="18.91" x2="263.77" y2="152.64"/><line class="cls-2" x1="11.97" y1="18.91" x2="11.97" y2="152.64"/></g><g id="Layer_4" data-name="Layer 4"><circle class="cls-3" cx="145.3" cy="40.65" r="14.83"/><circle class="cls-3" cx="190.56" cy="40.65" r="14.83"/><circle class="cls-3" cx="235.53" cy="40.65" r="14.83"/><line class="cls-3" x1="160.12" y1="40.65" x2="175.75" y2="40.65"/><line class="cls-3" x1="205.38" y1="40.65" x2="220.71" y2="40.65"/><line class="cls-3" x1="159.33" y1="45.44" x2="176.53" y2="45.44"/><line class="cls-3" x1="204.59" y1="45.44" x2="221.5" y2="45.44"/><circle class="cls-3" cx="145.3" cy="92.96" r="14.83"/><circle class="cls-3" cx="190.56" cy="92.96" r="14.83"/><circle class="cls-3" cx="235.53" cy="92.96" r="14.83"/><line class="cls-3" x1="160.12" y1="92.96" x2="175.75" y2="92.96"/><line class="cls-3" x1="205.38" y1="92.96" x2="220.71" y2="92.96"/><line class="cls-3" x1="159.33" y1="97.75" x2="176.53" y2="97.75"/><line class="cls-3" x1="204.59" y1="97.75" x2="221.5" y2="97.75"/><text class="cls-4" transform="translate(73.01 154.83)">DE<tspan class="cls-5" x="26.31" y="0">A</tspan><tspan x="38.5" y="0">TH S</tspan><tspan class="cls-6" x="80.96" y="0">A</tspan><tspan x="93.68" y="0">VES</tspan></text><text class="cls-4" transform="translate(14.86 49.11)">SU<tspan class="cls-7" x="25.92" y="0">C</tspan><tspan x="38.63" y="0">CESSES</tspan></text><text class="cls-8" transform="translate(35.69 100.7)">F<tspan class="cls-9" x="9.42" y="0">AI</tspan><tspan class="cls-10" x="28.97" y="0">L</tspan><tspan class="cls-9" x="38.98" y="0">URES</tspan></text></g></svg>