<svg id="Layer_1" data-name="Layer 1" xmlns="http://www.w3.org/2000/svg" viewBox="0 0 247.35 239.56"><defs><style>.cls-1,.cls-2{fill:none;stroke:#000;stroke-miterlimit:10;}.cls-2{stroke-width:0.5px;}.cls-3{font-size:10px;font-family:MyriadPro-Regular, Myriad Pro;}.cls-4{letter-spacing:-0.01em;}</style></defs><title>equipment</title><polygon class="cls-1" points="13.17 0.5 240.66 0.5 246.85 6.69 246.85 232.71 240.5 239.06 13.17 239.06 6.92 232.81 6.92 173.44 0.52 167.04 0.52 162.88 6.94 156.46 6.94 138.37 0.67 132.1 0.67 128.5 7.18 121.98 7.18 103.48 0.53 96.83 0.53 93.78 7.2 87.11 7.2 69.1 0.5 62.39 0.5 58.97 7.06 52.41 7.06 33.95 0.5 27.39 0.5 23.9 7.14 17.26 7.14 6.71 13.17 0.5"/><path class="cls-1" d="M145,370.5s-12.31-1.5-14.61-16.37" transform="translate(-123.43 -131.44)"/><path class="cls-1" d="M355.66,370.5S368,369,370.28,354.13" transform="translate(-123.43 -131.44)"/><path class="cls-1" d="M145,131.94s-12.31,1.5-14.61,16.37" transform="translate(-123.43 -131.44)"/><path class="cls-1" d="M355.66,131.94s12.31,1.5,14.62,16.37" transform="translate(-123.43 -131.44)"/><line class="cls-1" x1="243" y1="232.37" x2="243" y2="7.2"/><polygon class="cls-1" points="15.15 22.59 23.95 11.41 63.21 11.41 72.53 22.59 72.53 28.97 63.78 39.95 23.83 39.95 15.15 29.16 15.15 22.59"/><polygon class="cls-1" points="15.15 57.31 23.95 46.14 63.21 46.14 72.53 57.31 72.53 63.69 63.78 74.67 23.83 74.67 15.15 63.88 15.15 57.31"/><polygon class="cls-1" points="15.15 92.03 23.95 80.86 63.21 80.86 72.53 92.03 72.53 98.42 63.78 109.39 23.83 109.39 15.15 98.61 15.15 92.03"/><polygon class="cls-1" points="15.15 126.75 23.95 115.58 63.21 115.58 72.53 126.75 72.53 133.14 63.78 144.12 23.83 144.12 15.15 133.33 15.15 126.75"/><polygon class="cls-1" points="15.15 161.48 23.95 150.31 63.21 150.31 72.53 161.48 72.53 167.86 63.78 178.84 23.83 178.84 15.15 168.05 15.15 161.48"/><polyline class="cls-1" points="27.41 11.41 15.41 25.68 27.41 39.95"/><polyline class="cls-1" points="60.4 11.41 72.4 25.68 60.4 39.95"/><path class="cls-1" d="M140.81,185.91s3.72,5.15,0,12.19" transform="translate(-123.43 -131.44)"/><circle cx="19.15" cy="60.12" r="1.36"/><line class="cls-1" x1="18.21" y1="56.07" x2="26.51" y2="46.14"/><line class="cls-1" x1="18.42" y1="64.23" x2="27.1" y2="74.67"/><path class="cls-1" d="M193.09,185.91s-3.72,5.15,0,12.19" transform="translate(-123.43 -131.44)"/><circle cx="67.9" cy="60.12" r="1.36"/><line class="cls-1" x1="68.84" y1="56.07" x2="60.54" y2="46.14"/><line class="cls-1" x1="68.63" y1="64.23" x2="59.94" y2="74.67"/><circle class="cls-2" cx="19.19" cy="95.14" r="1.01"/><path class="cls-2" d="M142.47,225.58s.3-2.14-1.81-4.76" transform="translate(-123.43 -131.44)"/><path class="cls-2" d="M142.48,227.58s-.16,3.28-1.82,5" transform="translate(-123.43 -131.44)"/><path class="cls-2" d="M141.75,230.85a6.66,6.66,0,0,0,3.75,3.41s-.32,5,8.52,6.57" transform="translate(-123.43 -131.44)"/><path class="cls-2" d="M141.57,222.17a7.06,7.06,0,0,1,3.87-3.52,8.79,8.79,0,0,1,7.62-6.35" transform="translate(-123.43 -131.44)"/><circle class="cls-2" cx="67.85" cy="95.14" r="1.01"/><path class="cls-2" d="M191.42,225.58s-.29-2.14,1.81-4.76" transform="translate(-123.43 -131.44)"/><path class="cls-2" d="M191.41,227.58s.16,3.28,1.82,5" transform="translate(-123.43 -131.44)"/><path class="cls-2" d="M192.14,230.85a6.66,6.66,0,0,1-3.75,3.41s.32,5-8.52,6.57" transform="translate(-123.43 -131.44)"/><path class="cls-2" d="M192.32,222.17a7.06,7.06,0,0,0-3.87-3.52,8.79,8.79,0,0,0-7.62-6.35" transform="translate(-123.43 -131.44)"/><ellipse class="cls-2" cx="19.1" cy="130.07" rx="1.5" ry="1.28"/><path class="cls-2" d="M141.54,260.56s.05-1.94-2.42-3.07" transform="translate(-123.43 -131.44)"/><path class="cls-2" d="M141.54,262.46a5.07,5.07,0,0,1-2.42,3" transform="translate(-123.43 -131.44)"/><path class="cls-2" d="M142.53,262.79s-.43,3.41-1.89,4.54" transform="translate(-123.43 -131.44)"/><path class="cls-2" d="M142.53,260.23a7.44,7.44,0,0,0-1.89-4.66" transform="translate(-123.43 -131.44)"/><path class="cls-2" d="M141.86,265.45l4.79,6.27s1.24,1.89,3.67.48l3.41,3.35" transform="translate(-123.43 -131.44)"/><path class="cls-2" d="M141.74,257.18l5.52-6.58a2.26,2.26,0,0,1,3,0l3.51-3.58" transform="translate(-123.43 -131.44)"/><ellipse class="cls-2" cx="67.95" cy="130.07" rx="1.5" ry="1.28"/><path class="cls-2" d="M192.37,260.56s-.05-1.94,2.42-3.07" transform="translate(-123.43 -131.44)"/><path class="cls-2" d="M192.37,262.46a5.07,5.07,0,0,0,2.42,3" transform="translate(-123.43 -131.44)"/><path class="cls-2" d="M191.38,262.79s.43,3.41,1.89,4.54" transform="translate(-123.43 -131.44)"/><path class="cls-2" d="M191.38,260.23a7.44,7.44,0,0,1,1.89-4.66" transform="translate(-123.43 -131.44)"/><path class="cls-2" d="M192.05,265.45l-4.79,6.27s-1.24,1.89-3.67.48l-3.41,3.35" transform="translate(-123.43 -131.44)"/><path class="cls-2" d="M192.17,257.18l-5.52-6.58a2.26,2.26,0,0,0-3,0L180.18,247" transform="translate(-123.43 -131.44)"/><path class="cls-2" d="M138.57,296.4s5.41-3.87,5.71,0C144.28,296.4,144.15,300.45,138.57,296.4Z" transform="translate(-123.43 -131.44)"/><path class="cls-2" d="M142.31,298.19a8.53,8.53,0,0,1-1.5,4.08" transform="translate(-123.43 -131.44)"/><path class="cls-2" d="M142.31,294.68a16.93,16.93,0,0,0-1.5-4.6" transform="translate(-123.43 -131.44)"/><path class="cls-2" d="M143.4,294.83s-2.14-6,7.77-13.09" transform="translate(-123.43 -131.44)"/><path class="cls-2" d="M143.44,298s-1.38,8.87,8.33,12.32" transform="translate(-123.43 -131.44)"/><path class="cls-2" d="M147.07,285.24A12.67,12.67,0,0,1,157.55,284c6,1.92,6.64-.68,6.68-2.28" transform="translate(-123.43 -131.44)"/><path class="cls-2" d="M147.19,307.68s5.3,2.81,10.79,1,6.13,1.11,6.25,1.62" transform="translate(-123.43 -131.44)"/><path class="cls-2" d="M195.3,296.4s-5.41-3.87-5.71,0C189.59,296.4,189.72,300.45,195.3,296.4Z" transform="translate(-123.43 -131.44)"/><path class="cls-2" d="M191.56,298.19a8.65,8.65,0,0,0,1.5,4.08" transform="translate(-123.43 -131.44)"/><path class="cls-2" d="M191.56,294.68a16.93,16.93,0,0,1,1.5-4.6" transform="translate(-123.43 -131.44)"/><path class="cls-2" d="M190.47,294.83s2.15-6-7.77-13.09" transform="translate(-123.43 -131.44)"/><path class="cls-2" d="M190.43,298s1.38,8.87-8.32,12.32" transform="translate(-123.43 -131.44)"/><path class="cls-2" d="M186.8,285.24A12.66,12.66,0,0,0,176.32,284c-6,1.92-6.64-.68-6.68-2.28" transform="translate(-123.43 -131.44)"/><path class="cls-2" d="M186.68,307.68s-5.3,2.81-10.79,1-6.13,1.11-6.25,1.62" transform="translate(-123.43 -131.44)"/><text class="cls-3" transform="translate(102.83 235.44)">EQUI<tspan class="cls-4" x="20.67" y="0">P</tspan><tspan x="25.87" y="0">MENT</tspan></text><path class="cls-1" d="M143.62,217.07H133.26s-.49,5.49-3.61,2.45" transform="translate(-123.43 -131.44)"/><path class="cls-1" d="M143.24,235.84h-10s0-5.17-3.88-2.16" transform="translate(-123.43 -131.44)"/><path class="cls-1" d="M143.62,182.17H133.26s-.49,5.49-3.61,2.45" transform="translate(-123.43 -131.44)"/><path class="cls-1" d="M143.24,200.94h-10s0-5.17-3.88-2.16" transform="translate(-123.43 -131.44)"/><path class="cls-1" d="M143.62,147.06H133.26s-.49,5.49-3.61,2.46" transform="translate(-123.43 -131.44)"/><path class="cls-1" d="M143.24,165.84h-10s0-5.18-3.88-2.16" transform="translate(-123.43 -131.44)"/><path class="cls-1" d="M143.62,252.12H133.26s-.49,5.5-3.61,2.46" transform="translate(-123.43 -131.44)"/><path class="cls-1" d="M143.24,270.9h-10s0-5.18-3.88-2.16" transform="translate(-123.43 -131.44)"/><path class="cls-1" d="M143.62,287.06H133.26s-.49,5.49-3.61,2.45" transform="translate(-123.43 -131.44)"/><path class="cls-1" d="M143.24,305.83h-10s0-5.18-3.88-2.16" transform="translate(-123.43 -131.44)"/><line class="cls-1" x1="10.68" y1="15.63" x2="10.68" y2="7.32"/><line class="cls-1" x1="10.64" y1="34.4" x2="10.64" y2="50.73"/><line class="cls-1" x1="10.64" y1="69.45" x2="10.64" y2="85.63"/><line class="cls-1" x1="10.64" y1="104.4" x2="10.64" y2="120.67"/><line class="cls-1" x1="10.64" y1="139.46" x2="10.64" y2="155.62"/><line class="cls-1" x1="10.64" y1="174.39" x2="10.64" y2="232.19"/></svg>