<svg id="Layer_1" data-name="Layer 1" xmlns="http://www.w3.org/2000/svg" viewBox="0 0 224.13 470.83"><defs><style>.cls-1{fill:none;stroke:#000;stroke-miterlimit:10;}.cls-2{font-size:8px;font-family:MyriadPro-Regular, Myriad Pro;}.cls-3{letter-spacing:-0.08em;}.cls-4{letter-spacing:0em;}.cls-5{letter-spacing:-0.04em;}.cls-6{letter-spacing:0.01em;}.cls-7{letter-spacing:-0.01em;}</style></defs><title>features&amp;amp;traits</title><path class="cls-1" d="M143.26,14H350s.57,3.64,5.3,4.91V479s-5.43,1.57-5.43,4.81H143.26a7,7,0,0,0-5.37-4.6V19S142.66,17.68,143.26,14Z" transform="translate(-134.52 -13.48)"/><path class="cls-1" d="M137.89,25.77S143.21,15.43,151,14" transform="translate(-134.52 -13.48)"/><path class="cls-1" d="M355.28,25.77S350,15.43,342.13,14" transform="translate(-134.52 -13.48)"/><path class="cls-1" d="M346.4,483.81s.26-5.92,11.69-9.68c0,0,.76-14-2.81-21.19" transform="translate(-134.52 -13.48)"/><path class="cls-1" d="M355.28,469.47s-2-5.75-2-15.77V22.56" transform="translate(-134.52 -13.48)"/><path class="cls-1" d="M146.77,483.81s-.25-5.92-11.68-9.68c0,0-.76-14,2.81-21.19" transform="translate(-134.52 -13.48)"/><path class="cls-1" d="M137.9,469.47s2-5.75,2-15.77V22.56" transform="translate(-134.52 -13.48)"/><text class="cls-2" transform="translate(80.3 466.31)">FE<tspan class="cls-3" x="7.83" y="0">A</tspan><tspan class="cls-4" x="12.11" y="0">TURES &amp;</tspan><tspan class="cls-5" x="39.98" y="0"> </tspan><tspan x="41.35" y="0">T</tspan><tspan class="cls-6" x="45.33" y="0">R</tspan><tspan x="49.67" y="0">AI</tspan><tspan class="cls-7" x="56.48" y="0">T</tspan><tspan class="cls-4" x="60.41" y="0">S</tspan></text></svg>