<svg id="Layer_1" data-name="Layer 1" xmlns="http://www.w3.org/2000/svg" viewBox="0 0 206.02 79.42"><defs><style>.cls-1{fill:none;stroke:#000;stroke-miterlimit:10;}</style></defs><title>health</title><path class="cls-1" d="M147,290.32V217a7.48,7.48,0,0,0,5.79-4.94H346.47s.22,3.09,5.55,4.75v73.55h-3.16s-2.68-4.8-11.3,0H161.27s-7.76-4.85-11.08,0Z" transform="translate(-146.5 -211.4)"/><path class="cls-1" d="M147,224.39A22.51,22.51,0,0,1,160,212" transform="translate(-146.5 -211.4)"/><path class="cls-1" d="M149.43,220.06v41.41s.17,9.49-2.43,15.15" transform="translate(-146.5 -211.4)"/><path class="cls-1" d="M352,224.24a22.51,22.51,0,0,0-13-12.37" transform="translate(-146.5 -211.4)"/><path class="cls-1" d="M349.59,219.91v41.41s-.16,9.49,2.43,15.15" transform="translate(-146.5 -211.4)"/></svg>