<svg id="Layer_1" data-name="Layer 1" xmlns="http://www.w3.org/2000/svg" viewBox="0 0 79.67 74.84"><defs><style>.cls-1{fill:#fff;stroke-width:1.5px;}.cls-1,.cls-2,.cls-3{stroke:#000;}.cls-1,.cls-2{stroke-miterlimit:10;}.cls-2,.cls-3{fill:none;}.cls-3{stroke-linecap:round;stroke-linejoin:round;stroke-width:1.25px;}</style></defs><title>initiative</title><g id="Initiative_Speed" data-name="Initiative / Speed"><polygon class="cls-1" points="78.92 8.35 78.92 66.48 71.31 74.09 8.35 74.09 5.75 71.49 0.75 66.48 0.75 8.36 5.75 3.36 8.36 0.75 71.32 0.75 73.92 3.35 78.92 8.35"/><polygon class="cls-2" points="73.92 3.35 73.92 71.48 71.31 74.09 8.35 74.09 5.75 71.49 5.75 3.36 8.36 0.75 71.32 0.75 73.92 3.35"/><path class="cls-3" d="M289,226.72v45a45.5,45.5,0,0,1-12.84,14.18H223.65a45.29,45.29,0,0,1-7.85-7.17,44.75,44.75,0,0,1-5-7V226.74a44.75,44.75,0,0,1,5-7,45.29,45.29,0,0,1,7.85-7.17h52.48A45.5,45.5,0,0,1,289,226.72Z" transform="translate(-210.05 -211.79)"/></g></svg>