<svg id="Layer_1" data-name="Layer 1" xmlns="http://www.w3.org/2000/svg" viewBox="0 0 270.91 218.87"><defs><style>.cls-1{fill:none;stroke:#000;stroke-miterlimit:10;}.cls-2{font-size:10px;font-family:MyriadPro-Regular, Myriad Pro;}.cls-3{letter-spacing:-0.03em;}.cls-4{letter-spacing:0em;}.cls-5{letter-spacing:-0.03em;}.cls-6{letter-spacing:-0.02em;}</style></defs><title>languages</title><rect class="cls-1" x="5.25" y="1.45" width="260.4" height="215.79"/><path d="M116.94,355.05h-5.26v-1.11s1.91,0,2-2.49V148.09s-.42-2.53-2-2.53v-1.27h5.26v5.14h-2.3V351h2.3Z" transform="translate(-111.68 -141.21)"/><path d="M377.34,355.05h5.25v-1.11s-1.9,0-2-2.49V148.09s.42-2.53,2-2.53v-1.27h-5.25v5.14h2.3V351h-2.3Z" transform="translate(-111.68 -141.21)"/><path d="M374.19,358.45s2.17.77,2.17,1.63h1.88v-5.23h-.9v3.6Z" transform="translate(-111.68 -141.21)"/><path d="M120.06,358.45s-2.17.77-2.17,1.63H116v-5.23h.89v3.6Z" transform="translate(-111.68 -141.21)"/><path d="M120.06,142.84s-2.17-.77-2.17-1.63H116v5.23h.89v-3.6Z" transform="translate(-111.68 -141.21)"/><path d="M374.19,142.84s2.17-.77,2.17-1.63h1.88v5.23h-.9v-3.6Z" transform="translate(-111.68 -141.21)"/><text class="cls-2" transform="translate(60.45 213.36)"><tspan class="cls-3">O</tspan><tspan x="6.64" y="0">THER P</tspan><tspan class="cls-4" x="35.87" y="0">R</tspan><tspan x="41.28" y="0">OFICIENCIES &amp; LANG</tspan><tspan class="cls-5" x="127.33" y="0">U</tspan><tspan class="cls-6" x="133.46" y="0">A</tspan><tspan x="139.43" y="0">GES</tspan></text></svg>