<svg id="Layer_1" data-name="Layer 1" xmlns="http://www.w3.org/2000/svg" viewBox="0 0 223.33 33.4"><defs><style>.cls-1,.cls-2{fill:none;stroke:#000;stroke-miterlimit:10;}.cls-1{stroke-width:2px;}</style></defs><title>perception</title><path class="cls-1" d="M148.4,236s-19.53,14.55,0,31.4h20.94s18.77-14.81,0-31.4Z" transform="translate(-138.72 -234.98)"/><polyline class="cls-2" points="33.2 3.52 217.77 3.52 222.83 8.58 222.83 23.98 217.55 29.25 33.76 29.25"/><path class="cls-2" d="M347.81,238.5s8.84,3,13.74,9v6.76s-2.89,7.36-13.74,10" transform="translate(-138.72 -234.98)"/><path class="cls-2" d="M184.79,238.5s-5.62,6-25-2.52" transform="translate(-138.72 -234.98)"/><path class="cls-2" d="M184.79,264.23s-8.68-6-25,3.15" transform="translate(-138.72 -234.98)"/><path class="cls-2" d="M177.68,262.28s8.9-11.58-.42-21.75" transform="translate(-138.72 -234.98)"/></svg>