<svg id="Layer_1" data-name="Layer 1" xmlns="http://www.w3.org/2000/svg" viewBox="0 0 221.29 196.23"><defs><style>.cls-1,.cls-2{fill:none;stroke:#000;stroke-miterlimit:10;}.cls-1{stroke-width:2px;}.cls-3{font-size:12.11px;font-family:Lato-Regular, Lato;}.cls-4{letter-spacing:-0.02em;}.cls-5{letter-spacing:-0.02em;}.cls-6{letter-spacing:-0.01em;}.cls-7{letter-spacing:-0.01em;}.cls-8{letter-spacing:0em;}.cls-9{letter-spacing:-0.02em;}.cls-10{letter-spacing:-0.01em;}.cls-11{letter-spacing:-0.01em;}.cls-12{letter-spacing:-0.01em;}.cls-13{letter-spacing:0em;}.cls-14{letter-spacing:-0.01em;}.cls-15{letter-spacing:0em;}.cls-16{letter-spacing:-0.01em;}.cls-17{letter-spacing:-0.03em;}.cls-18{letter-spacing:-0.01em;}.cls-19{letter-spacing:-0.01em;}.cls-20{letter-spacing:-0.01em;}</style></defs><title>SavingThrows</title><path class="cls-1" d="M149.89,152.78H344.68s1.41,4.5,9,8.15l2.25,19.68s-3.38,6.18-3.38,44.13v44.41s-1.68,37.66,3.38,50.31l-2.25,20s-8.15,3.09-8.15,7.59H149.89s1.13-5.06-8.71-7.59l-1.4-20.52s5.62-12.37,3.37-45.54l.28-56.49s1.24-25.86-3.65-36l2.24-20.8S149.61,159.44,149.89,152.78Z" transform="translate(-137.2 -151.78)"/><path class="cls-2" d="M164.79,152.78s-23.33,4.5-21.36,25.86c0,0,3.94,6.75-5.62,13.21,0,0,5.2,16.59,5.44,60.43,0,0-.1,36.82-5.44,55.66,0,0,12.76,5.13,2.58,20" transform="translate(-137.2 -151.78)"/><path class="cls-2" d="M330.91,152.78s23.33,4.5,21.36,25.86c0,0-3.93,6.75,5.62,13.21,0,0-5.19,16.59-5.44,60.43,0,0,.1,36.82,5.44,55.66,0,0-12.76,5.13-2.58,20" transform="translate(-137.2 -151.78)"/><path class="cls-2" d="M166.76,347s-26.26-2.57-22.83-26.44" transform="translate(-137.2 -151.78)"/><path class="cls-2" d="M328.93,347s26.26-2.57,22.83-26.44" transform="translate(-137.2 -151.78)"/><path class="cls-2" d="M352.27,178.64a13.68,13.68,0,0,0,2.34-9.51" transform="translate(-137.2 -151.78)"/><path class="cls-2" d="M143.44,178.64a13.74,13.74,0,0,1-2.34-9.51" transform="translate(-137.2 -151.78)"/><circle class="cls-2" cx="23.53" cy="22.1" r="6.01"/><circle class="cls-2" cx="23.53" cy="47.76" r="6.01"/><circle class="cls-2" cx="23.53" cy="73.96" r="6.01"/><circle class="cls-2" cx="23.53" cy="99.61" r="6.01"/><circle class="cls-2" cx="23.53" cy="126.07" r="6.01"/><circle class="cls-2" cx="23.53" cy="151.72" r="6.01"/><line class="cls-1" x1="40.61" y1="29.76" x2="67.97" y2="29.76"/><line class="cls-1" x1="40.61" y1="55.81" x2="67.97" y2="55.81"/><line class="cls-1" x1="40.61" y1="81.86" x2="67.97" y2="81.86"/><line class="cls-1" x1="40.61" y1="107.9" x2="67.97" y2="107.9"/><line class="cls-1" x1="40.61" y1="133.95" x2="67.97" y2="133.95"/><line class="cls-1" x1="40.61" y1="160" x2="67.97" y2="160"/><text class="cls-3" transform="translate(75.37 26.23)"><tspan class="cls-4">S</tspan><tspan x="6.3" y="0">t</tspan><tspan class="cls-5" x="10.64" y="0">r</tspan><tspan x="14.8" y="0">ength</tspan></text><text class="cls-3" transform="translate(75.37 52.28)"><tspan class="cls-6">D</tspan><tspan class="cls-7" x="9.13" y="0">e</tspan><tspan x="15.44" y="0">x</tspan><tspan class="cls-8" x="21.47" y="0">t</tspan><tspan x="25.78" y="0">erit</tspan><tspan class="cls-9" x="43.83" y="0">y</tspan></text><text class="cls-3" transform="translate(75.37 78.33)"><tspan class="cls-10">C</tspan><tspan x="7.97" y="0">onstitution</tspan></text><text class="cls-3" transform="translate(75.37 104.37)"><tspan class="cls-11">I</tspan><tspan class="cls-6" x="3.3" y="0">n</tspan><tspan class="cls-8" x="9.97" y="0">t</tspan><tspan x="14.28" y="0">elli</tspan><tspan class="cls-12" x="29.3" y="0">g</tspan><tspan class="cls-13" x="35.5" y="0">en</tspan><tspan class="cls-14" x="48.65" y="0">c</tspan><tspan x="54.32" y="0">e</tspan></text><text class="cls-3" transform="translate(75.37 130.42)"><tspan class="cls-15">W</tspan><tspan x="12.5" y="0">isdom</tspan></text><text class="cls-3" transform="translate(75.37 156.47)">Charisma</text><text class="cls-3" transform="translate(60.88 186.48)"><tspan class="cls-16">S</tspan><tspan x="6.41" y="0">AVING</tspan><tspan class="cls-17" x="44.29" y="0"> </tspan><tspan x="47.03" y="0">TH</tspan><tspan class="cls-18" x="63.42" y="0">R</tspan><tspan class="cls-19" x="70.93" y="0">O</tspan><tspan class="cls-20" x="80.49" y="0">W</tspan><tspan x="92.97" y="0">S</tspan></text></svg>