<svg id="Layer_1" data-name="Layer 1" xmlns="http://www.w3.org/2000/svg" viewBox="0 0 208.4 487.13"><defs><style>.cls-1{fill:none;stroke:#000;stroke-miterlimit:10;}.cls-2{font-size:11px;}.cls-2,.cls-33{font-family:MyriadPro-Regular, Myriad Pro;}.cls-17,.cls-3{letter-spacing:-0.01em;}.cls-4{letter-spacing:-0.01em;}.cls-14,.cls-5{letter-spacing:0em;}.cls-10,.cls-11,.cls-13,.cls-14,.cls-17,.cls-20,.cls-21,.cls-24,.cls-29,.cls-30,.cls-6,.cls-7,.cls-8{fill:#b3b3b3;}.cls-15,.cls-7{letter-spacing:0em;}.cls-8{letter-spacing:0em;}.cls-30,.cls-9{letter-spacing:0em;}.cls-10{letter-spacing:0.05em;}.cls-11{letter-spacing:-0.02em;}.cls-12{letter-spacing:-0.01em;}.cls-13{letter-spacing:0.01em;}.cls-16{letter-spacing:-0.01em;}.cls-18,.cls-24{letter-spacing:0.01em;}.cls-19{letter-spacing:0.03em;}.cls-20{letter-spacing:-0.02em;}.cls-21{letter-spacing:-0.01em;}.cls-22{letter-spacing:-0.01em;}.cls-23{letter-spacing:0.01em;}.cls-25{letter-spacing:-0.03em;}.cls-26{letter-spacing:0.03em;}.cls-27{letter-spacing:-0.01em;}.cls-28{letter-spacing:-0.01em;}.cls-29,.cls-32{letter-spacing:0em;}.cls-31{letter-spacing:0em;}.cls-33{font-size:13px;}</style></defs><title>skills</title><path class="cls-1" d="M153.51,493.72h184.3s-.51-4.25,8.17-7.4l1.45-19.83s-5.2-15.06-2.64-46V77.47s-2.09-29.79,2.89-42.81l-1.59-19.92s-6.9-1.21-8.49-7.14H153.51s.65,4.34-8,7.21l-1.73,18.7s5,18.43,2.75,38.09V423.68s2.17,27.32-2.75,43.06l2,20.09S153.72,489,153.51,493.72Z" transform="translate(-141.42 -7.1)"/><path class="cls-1" d="M144.52,474.57s9.12-10.63-2.54-17.95c0,0,4.51-21.45,4.51-35.07" transform="translate(-141.42 -7.1)"/><path class="cls-1" d="M146.79,470.81s-2.17,18.49,21.66,22.91" transform="translate(-141.42 -7.1)"/><path class="cls-1" d="M346.72,474.57s-9.12-10.63,2.54-17.95c0,0-4.51-21.45-4.51-35.07" transform="translate(-141.42 -7.1)"/><path class="cls-1" d="M344.45,470.81s2.17,18.49-21.66,22.91" transform="translate(-141.42 -7.1)"/><path class="cls-1" d="M144.52,26.75s9.12,10.63-2.54,18c0,0,4.51,21.45,4.51,35.07" transform="translate(-141.42 -7.1)"/><path class="cls-1" d="M146.79,30.51S144.62,12,168.45,7.6" transform="translate(-141.42 -7.1)"/><path class="cls-1" d="M347.08,26.39s-9.48,11,2.18,18.31c0,0-4.51,21.45-4.51,35.07" transform="translate(-141.42 -7.1)"/><path class="cls-1" d="M344.45,30.51S346.62,12,322.79,7.6" transform="translate(-141.42 -7.1)"/><circle class="cls-1" cx="21.83" cy="27.52" r="5.66"/><circle class="cls-1" cx="21.83" cy="52.27" r="5.66"/><circle class="cls-1" cx="21.83" cy="76.54" r="5.66"/><circle class="cls-1" cx="21.83" cy="101.29" r="5.66"/><circle class="cls-1" cx="21.83" cy="126.05" r="5.66"/><circle class="cls-1" cx="21.83" cy="150.8" r="5.66"/><circle class="cls-1" cx="21.83" cy="175.07" r="5.66"/><circle class="cls-1" cx="21.83" cy="199.82" r="5.66"/><circle class="cls-1" cx="21.83" cy="224.57" r="5.66"/><circle class="cls-1" cx="21.83" cy="249.32" r="5.66"/><circle class="cls-1" cx="21.83" cy="273.59" r="5.66"/><circle class="cls-1" cx="21.83" cy="298.34" r="5.66"/><circle class="cls-1" cx="21.83" cy="322.02" r="5.66"/><circle class="cls-1" cx="21.83" cy="346.77" r="5.66"/><circle class="cls-1" cx="21.83" cy="371.04" r="5.66"/><circle class="cls-1" cx="21.83" cy="395.79" r="5.66"/><circle class="cls-1" cx="21.83" cy="420.21" r="5.66"/><circle class="cls-1" cx="21.83" cy="444.96" r="5.66"/><line class="cls-1" x1="37.75" y1="34.84" x2="63.41" y2="34.84"/><line class="cls-1" x1="37.75" y1="59.48" x2="63.41" y2="59.48"/><line class="cls-1" x1="37.75" y1="84.31" x2="63.41" y2="84.31"/><line class="cls-1" x1="37.75" y1="108.95" x2="63.41" y2="108.95"/><line class="cls-1" x1="37.75" y1="133.27" x2="63.41" y2="133.27"/><line class="cls-1" x1="37.75" y1="157.9" x2="63.41" y2="157.9"/><line class="cls-1" x1="37.75" y1="182.73" x2="63.41" y2="182.73"/><line class="cls-1" x1="37.75" y1="207.37" x2="63.41" y2="207.37"/><line class="cls-1" x1="37.75" y1="231.65" x2="63.41" y2="231.65"/><line class="cls-1" x1="37.75" y1="256.29" x2="63.41" y2="256.29"/><line class="cls-1" x1="37.75" y1="281.12" x2="63.41" y2="281.12"/><line class="cls-1" x1="37.75" y1="305.76" x2="63.41" y2="305.76"/><line class="cls-1" x1="37.75" y1="330.07" x2="63.41" y2="330.07"/><line class="cls-1" x1="37.75" y1="354.71" x2="63.41" y2="354.71"/><line class="cls-1" x1="37.75" y1="379.54" x2="63.41" y2="379.54"/><line class="cls-1" x1="37.75" y1="404.18" x2="63.41" y2="404.18"/><line class="cls-1" x1="37.75" y1="427.9" x2="63.41" y2="427.9"/><line class="cls-1" x1="37.75" y1="452.54" x2="63.41" y2="452.54"/><text class="cls-2" transform="translate(70.19 30.45)"><tspan class="cls-3">A</tspan><tspan x="6.6" y="0">c</tspan><tspan class="cls-4" x="11.53" y="0">r</tspan><tspan x="15.01" y="0">ob</tspan><tspan class="cls-5" x="27.31" y="0">a</tspan><tspan x="32.57" y="0">tics </tspan><tspan class="cls-6" x="50.4" y="0">(</tspan><tspan class="cls-7" x="53.53" y="0">D</tspan><tspan class="cls-8" x="60.9" y="0">e</tspan><tspan class="cls-6" x="66.37" y="0">x)</tspan></text><text class="cls-2" transform="translate(70.19 57.52)"><tspan class="cls-9">A</tspan><tspan x="6.7" y="0">nimal Handling </tspan><tspan class="cls-10" x="79.32" y="0">(</tspan><tspan class="cls-11" x="82.99" y="0">W</tspan><tspan class="cls-6" x="92.12" y="0">is)</tspan></text><text class="cls-2" transform="translate(70.19 82.16)"><tspan class="cls-9">A</tspan><tspan class="cls-12" x="6.7" y="0">r</tspan><tspan x="10.19" y="0">cana </tspan><tspan class="cls-6" x="34.15" y="0">(</tspan><tspan class="cls-13" x="37.28" y="0">I</tspan><tspan class="cls-14" x="40.02" y="0">n</tspan><tspan class="cls-6" x="46.08" y="0">t)</tspan></text><text class="cls-2" transform="translate(70.19 106.79)"><tspan class="cls-4">A</tspan><tspan x="6.62" y="0">thletics </tspan><tspan class="cls-6" x="42.3" y="0">(</tspan><tspan class="cls-8" x="45.43" y="0">S</tspan><tspan class="cls-6" x="50.82" y="0">tr)</tspan></text><text class="cls-2" transform="translate(70.19 129.6)"><tspan class="cls-15">D</tspan><tspan x="7.37" y="0">e</tspan><tspan class="cls-16" x="12.88" y="0">c</tspan><tspan x="17.74" y="0">eption </tspan><tspan class="cls-17" x="50.2" y="0">(</tspan><tspan class="cls-6" x="53.19" y="0">Cha)</tspan></text><text class="cls-2" transform="translate(70.19 154.24)"><tspan class="cls-18">H</tspan><tspan x="7.28" y="0">is</tspan><tspan class="cls-16" x="14.21" y="0">t</tspan><tspan x="17.79" y="0">o</tspan><tspan class="cls-19" x="23.83" y="0">r</tspan><tspan x="27.7" y="0">y </tspan><tspan class="cls-6" x="35.21" y="0">(</tspan><tspan class="cls-13" x="38.33" y="0">I</tspan><tspan class="cls-14" x="41.07" y="0">n</tspan><tspan class="cls-6" x="47.13" y="0">t)</tspan></text><text class="cls-2" transform="translate(70.19 178.88)"><tspan class="cls-18">I</tspan><tspan x="2.74" y="0">nsig</tspan><tspan class="cls-5" x="21.92" y="0">h</tspan><tspan x="27.98" y="0">t </tspan><tspan class="cls-10" x="33.96" y="0">(</tspan><tspan class="cls-20" x="37.63" y="0">W</tspan><tspan class="cls-6" x="46.76" y="0">is)</tspan></text><text class="cls-2" transform="translate(70.19 203.52)"><tspan class="cls-18">I</tspan><tspan class="cls-5" x="2.74" y="0">n</tspan><tspan x="8.8" y="0">timid</tspan><tspan class="cls-5" x="32.97" y="0">a</tspan><tspan x="38.22" y="0">tion </tspan><tspan class="cls-21" x="58.92" y="0">(</tspan><tspan class="cls-6" x="61.91" y="0">Cha)</tspan></text><text class="cls-2" transform="translate(70.19 228.16)"><tspan class="cls-18">I</tspan><tspan class="cls-22" x="2.74" y="0">n</tspan><tspan class="cls-12" x="8.7" y="0">v</tspan><tspan x="13.88" y="0">estig</tspan><tspan class="cls-5" x="36.11" y="0">a</tspan><tspan x="41.37" y="0">tion </tspan><tspan class="cls-6" x="62.06" y="0">(</tspan><tspan class="cls-13" x="65.18" y="0">I</tspan><tspan class="cls-14" x="67.92" y="0">n</tspan><tspan class="cls-6" x="73.98" y="0">t)</tspan></text><text class="cls-2" transform="translate(70.19 252.79)"><tspan class="cls-23">M</tspan><tspan x="8.91" y="0">edicine </tspan><tspan class="cls-10" x="44.65" y="0">(</tspan><tspan class="cls-20" x="48.32" y="0">W</tspan><tspan class="cls-6" x="57.45" y="0">is)</tspan></text><text class="cls-2" transform="translate(70.19 277.43)">N<tspan class="cls-5" x="7.24" y="0">a</tspan><tspan x="12.5" y="0">tu</tspan><tspan class="cls-4" x="22.2" y="0">r</tspan><tspan x="25.68" y="0">e </tspan><tspan class="cls-6" x="33.53" y="0">(</tspan><tspan class="cls-24" x="36.65" y="0">I</tspan><tspan class="cls-14" x="39.39" y="0">n</tspan><tspan class="cls-6" x="45.45" y="0">t)</tspan></text><text class="cls-2" transform="translate(70.19 302.07)"><tspan class="cls-25">P</tspan><tspan x="5.58" y="0">e</tspan><tspan class="cls-12" x="11.09" y="0">r</tspan><tspan class="cls-16" x="14.57" y="0">c</tspan><tspan x="19.44" y="0">eption </tspan><tspan class="cls-10" x="51.9" y="0">(</tspan><tspan class="cls-11" x="55.57" y="0">W</tspan><tspan class="cls-6" x="64.7" y="0">is)</tspan></text><text class="cls-2" transform="translate(70.19 326.71)"><tspan class="cls-25">P</tspan><tspan x="5.58" y="0">e</tspan><tspan class="cls-26" x="11.09" y="0">r</tspan><tspan class="cls-27" x="15.01" y="0">f</tspan><tspan x="18.08" y="0">o</tspan><tspan class="cls-15" x="24.12" y="0">r</tspan><tspan x="27.76" y="0">man</tspan><tspan class="cls-28" x="48.34" y="0">c</tspan><tspan x="53.21" y="0">e </tspan><tspan class="cls-21" x="61.05" y="0">(</tspan><tspan class="cls-29" x="64.04" y="0">Cha)</tspan></text><text class="cls-2" transform="translate(70.19 351.35)"><tspan class="cls-25">P</tspan><tspan x="5.58" y="0">ersuasion </tspan><tspan class="cls-17" x="51.81" y="0">(</tspan><tspan class="cls-6" x="54.8" y="0">Cha)</tspan></text><text class="cls-2" transform="translate(70.19 375.98)"><tspan class="cls-15">R</tspan><tspan x="5.96" y="0">eli</tspan><tspan class="cls-16" x="16.64" y="0">g</tspan><tspan x="22.72" y="0">ion </tspan><tspan class="cls-6" x="39.77" y="0">(</tspan><tspan class="cls-24" x="42.9" y="0">I</tspan><tspan class="cls-14" x="45.64" y="0">n</tspan><tspan class="cls-6" x="51.7" y="0">t)</tspan></text><text class="cls-2" transform="translate(70.19 400.62)">Sleig<tspan class="cls-5" x="22.25" y="0">h</tspan><tspan x="28.31" y="0">t of Hand </tspan><tspan class="cls-6" x="72.98" y="0">(</tspan><tspan class="cls-7" x="76.11" y="0">D</tspan><tspan class="cls-30" x="83.48" y="0">e</tspan><tspan class="cls-6" x="88.95" y="0">x)</tspan></text><text class="cls-2" transform="translate(70.19 425.26)"><tspan class="cls-9">S</tspan><tspan class="cls-28" x="5.39" y="0">t</tspan><tspan x="8.96" y="0">ealth </tspan><tspan class="cls-6" x="34.45" y="0">(</tspan><tspan class="cls-7" x="37.57" y="0">D</tspan><tspan class="cls-30" x="44.94" y="0">e</tspan><tspan class="cls-6" x="50.42" y="0">x)</tspan></text><text class="cls-2" transform="translate(70.19 449.9)">Su<tspan class="cls-19" x="11.48" y="0">r</tspan><tspan x="15.36" y="0">vi</tspan><tspan class="cls-31" x="23.22" y="0">v</tspan><tspan class="cls-32" x="28.47" y="0">al </tspan><tspan class="cls-10" x="38.7" y="0">(</tspan><tspan class="cls-20" x="42.37" y="0">W</tspan><tspan class="cls-6" x="51.5" y="0">is)</tspan></text><text class="cls-33" transform="translate(86.67 482.16)">SKILLS</text></svg>