<svg id="Layer_1" data-name="Layer 1" xmlns="http://www.w3.org/2000/svg" viewBox="0 0 206.02 79.42"><defs><style>.cls-1{fill:none;stroke:#000;stroke-miterlimit:10;}</style></defs><title>Temphealth</title><path class="cls-1" d="M147,211.87v73.36a7.48,7.48,0,0,1,5.79,4.94H346.47s.22-3.08,5.55-4.74V211.87h-3.16s-2.68,4.8-11.3,0H161.27s-7.76,4.85-11.08,0Z" transform="translate(-146.5 -211.37)"/><path class="cls-1" d="M147,277.8a22.51,22.51,0,0,0,13,12.37" transform="translate(-146.5 -211.37)"/><path class="cls-1" d="M149.43,282.14V240.72s.17-9.49-2.43-15.15" transform="translate(-146.5 -211.37)"/><path class="cls-1" d="M352,278a22.51,22.51,0,0,1-13,12.37" transform="translate(-146.5 -211.37)"/><path class="cls-1" d="M349.59,282.29V240.87s-.16-9.49,2.43-15.15" transform="translate(-146.5 -211.37)"/></svg>